Coordinates
version=1
nRows=8
nColumns=40
inDegrees=yes

Units are S.I. units (second, meters, Newtons, ...)
Angles are in degrees.

endheader
time	pelvis_tilt	pelvis_list	pelvis_rotation	pelvis_tx	pelvis_ty	pelvis_tz	hip_flexion_r	hip_adduction_r	hip_rotation_r	knee_angle_r	knee_angle_r_beta	ankle_angle_r	subtalar_angle_r	mtp_angle_r	hip_flexion_l	hip_adduction_l	hip_rotation_l	knee_angle_l	knee_angle_l_beta	ankle_angle_l	subtalar_angle_l	mtp_angle_l	lumbar_extension	lumbar_bending	lumbar_rotation	arm_flex_r	arm_add_r	arm_rot_r	elbow_flex_r	pro_sup_r	wrist_flex_r	wrist_dev_r	arm_flex_l	arm_add_l	arm_rot_l	elbow_flex_l	pro_sup_l	wrist_flex_l	wrist_dev_l
      1.54500000	     -6.77076002	     -7.59720756	      1.73110762	      0.98382577	      0.91138469	      0.45518370	     -1.75706735	      6.93641619	    -14.63775271	      8.80257163	      8.80257163	     18.52748678	     10.05600059	     -1.35715485	     36.23562271	     -9.34915556	     -4.58402836	     15.01492731	     15.01492731	      3.82833394	     -5.45361428	      7.19216285	     -9.29481248	      6.44965948	      2.47814094	     48.25729076	    -12.53001405	     -1.31745607	     95.72935292	     44.39746567	      0.00000000	      0.00000000	    -17.57314813	     -4.03882981	      7.40873410	     27.06788827	     44.38408589	      0.00000000	      0.00000000
      1.55650000	     -6.80542286	     -7.47775137	      1.40797652	      0.98571421	      0.90985963	      0.45340326	     -2.45457814	      6.62636136	    -14.27629011	      8.95453517	      8.95453517	     19.03541971	     10.17284225	     -1.42742339	     36.11994500	     -9.27306053	     -5.29308705	     15.91596605	     15.91596605	      3.21450325	     -6.58313847	      7.07635091	     -8.97878279	      6.34998569	      2.49402955	     48.45153451	    -12.13105067	     -1.23253006	     96.25603426	     44.38391989	      0.00000000	      0.00000000	    -17.85029482	     -3.97540406	      7.42595112	     26.94024403	     44.38428053	      0.00000000	      0.00000000
      1.56800000	     -6.81185706	     -7.34576059	      1.06206665	      0.98770438	      0.90839946	      0.45158346	     -3.09500832	      6.25788663	    -13.87993008	      9.28142663	      9.28142663	     19.53722640	     10.27132002	     -1.47854662	     36.02707852	     -9.21319825	     -5.77527601	     17.09033664	     17.09033664	      2.46111451	     -8.07829981	      6.86626743	     -8.70701680	      6.20478458	      2.47365021	     48.41866733	    -11.70914745	     -1.15019321	     96.95804669	     44.36380529	      0.00000000	      0.00000000	    -18.05751415	     -3.95007371	      7.40717719	     26.86887790	     44.39096371	      0.00000000	      0.00000000
      1.57950000	     -6.86885385	     -7.27592310	      0.77482736	      0.98968216	      0.90680604	      0.44952162	     -3.41957879	      5.86237462	    -13.68618293	     10.14259206	     10.14259206	     20.48298198	     10.36266431	     -0.68603590	     35.81092199	     -8.97546422	     -5.20697781	     17.85509797	     17.85509797	     -0.05787821	    -11.50605539	      3.78692612	     -8.47241582	      6.14754138	      2.95895041	     47.55143794	    -11.97295866	     -1.70922244	     99.70512920	     44.35403625	      0.00000000	      0.00000000	    -17.86287522	     -3.98380267	      6.91867507	     26.95059554	     44.55456151	      0.00000000	      0.00000000
      1.59100000	     -6.87560600	     -7.14021635	      0.45895034	      0.99165466	      0.90547906	      0.44757566	     -3.74218188	      5.39767782	    -13.30427402	     11.05262831	     11.05262831	     21.00075198	     10.18044970	     -0.88347356	     35.87281594	     -8.93154498	     -5.35586556	     19.44029635	     19.44029635	     -0.71478640	    -13.03375501	      3.59316913	     -8.22470274	      6.00329016	      2.80608047	     47.16247375	    -11.55221448	     -1.56264835	    100.45041277	     44.33731903	      0.00000000	      0.00000000	    -17.78948910	     -4.04117838	      6.83490741	     26.85404839	     44.58631612	      0.00000000	      0.00000000
      1.60250000	     -6.66874587	     -6.87461511	      0.15683063	      0.99387799	      0.90484470	      0.44556988	     -4.37766550	      4.79833140	    -12.89180778	     11.80550373	     11.80550373	     21.29362390	     10.09780933	     -1.06537483	     35.59391037	     -8.80048278	     -5.60219481	     20.93826307	     20.93826307	     -1.00593347	    -14.10257599	      3.48956558	     -8.20051424	      5.68059786	      2.72749408	     46.45344939	    -11.27171810	     -1.40254690	    100.73595097	     44.32396032	      0.00000000	      0.00000000	    -17.53926810	     -4.19847862	      6.77836606	     26.87057811	     44.60442251	      0.00000000	      0.00000000
      1.61400000	     -6.75258006	     -6.82050272	     -0.12155748	      0.99543485	      0.90372977	      0.44353557	     -4.01771667	      4.28431369	    -12.58631257	     13.77446425	     13.77446425	     21.71227046	      9.50466677	     -1.68237862	     35.88693445	     -8.80160720	     -5.33794345	     22.73549264	     22.73549264	     -1.21161891	    -15.50102138	      3.40193952	     -7.97479602	      5.58374053	      2.57659863	     45.65324981	    -11.20081266	     -1.35424109	    101.99962426	     44.28972190	      0.00000000	      0.00000000	    -17.12526941	     -4.31673032	      6.61830243	     26.85698074	     44.65084727	      0.00000000	      0.00000000
      1.62550000	     -6.72865536	     -6.54648508	     -0.39963059	      0.99707186	      0.90336438	      0.44140301	     -3.69377522	      3.52672743	    -12.19645414	     15.83126856	     15.83126856	     21.74177191	      8.74241895	     -2.58629984	     35.81372637	     -8.60674865	     -5.34003009	     24.17280296	     24.17280296	     -0.93134595	    -16.27876030	      3.58220389	     -7.87957182	      5.22560731	      2.72400564	     44.18374148	    -11.41826300	     -1.34396274	    103.40425673	     44.25544262	      0.00000000	      0.00000000	    -16.33140200	     -4.55634436	      6.34618790	     26.79293753	     44.72902235	      0.00000000	      0.00000000
